<?xml version="1.0" encoding="UTF-8" standalone="no"?>
<!-- Created with Inkscape (http://www.inkscape.org/) -->

<svg
   version="1.1"
   id="svg2"
   width="900"
   height="643"
   viewBox="0 0 900 643"
   xmlns="http://www.w3.org/2000/svg"
   xmlns:svg="http://www.w3.org/2000/svg">
  <defs
     id="defs6" />
  <g
     id="g8">
    <path
       style="fill:#64ffda;fill-opacity:1;stroke:none"
       d="m 89.223138,1.0290523 c -41.4246,5.639099 -75.9395,33.7157337 -84.7893497,75.5748357 -3.32694,15.7362 -2.21065,32.008002 -2.21065,48.000002 0,28.703 1,57.355 1,86 0,88.039 -1,175.941 -1,264 0,47.923 -9.4021602,105.289 29.0146997,141.911 29.6112,28.227 65.0808,26.089 102.985302,26.089 34.393,0 68.626,1 103,1 h 392 126 c 22.186,0 46.113,2.51 68,-1.463 39.407,-7.153 72.044,-39.564 77.714,-79.537 6.14,-43.28 1.286,-90.286 1.286,-134 v -258 c 0,-51.445 10.57,-108.831004 -32,-146.826404 -26.473,-23.62843869 -58.773,-23.17360469 -92,-23.17360469 h -115 -384 -126 c -20.85,0 -43.344,-2.38672001 -64.000002,0.42517099 M 809.22314,51.603886 c -8.081,11.4717 -20.082,21.082002 -30,31.000002 l -57,57.000002 -178,178 -63,63 c -6.983,6.983 -16.09,20.649 -27,20.653 -11.613,0.004 -20.606,-13.259 -28,-20.653 l -63,-63 -178,-178 -57,-57.000002 c -9.918,-9.918 -21.919,-19.528302 -30.000002,-31.000002 H 809.22314 m 45,25.000002 V 458.60389 c 0,30.605 3.55,63.689 -0.576,94 -1.918,14.086 -5.476,27.537 -18.424,35.532 -3.228,1.992 -8.11,4.973 -12,3.347 -6.042,-2.525 -11.437,-10.316 -16,-14.879 l -33,-33 -144,-144 -36,-36 c -3.163,-3.163 -11.793,-9.117 -11.793,-14 0,-5.814 11.943,-14.15 15.793,-18 l 50,-50 137,-137 c 21.978,-21.978 43.615,-50.118202 69,-68.000002 m -797.000002,2 194.000002,194.000002 52,52 c 5.182,5.182 17.852,13.77 19.654,21 1.209,4.85 -7.686,11.032 -10.654,14 l -35,35 -146,146 -40.000002,40 c -3.9074,3.907 -9.6216,12.587 -16,10.409 -11.5262,-3.936 -17.698,-17.1 -18.8295,-28.409 -2.9078,-29.063 -0.1705,-59.78 -0.1705,-89 v -279 -81 c 0,-10.109 -2.9076,-25.687602 1,-35.000002 m 302.000002,302.000002 67,67 c 7.011,7.011 16.967,21.793 28,21.64 11.049,-0.152 20.952,-14.592 28,-21.64 l 64,-64 h 1 l 141,141 c 22.612,22.612 51.603,44.883 70,71 h -614 l 36,-37 71,-71 71,-71 z"
       id="path293" />
  </g>
</svg>
