<?xml version="1.0" encoding="UTF-8" standalone="no"?>
<!-- Created with Inkscape (http://www.inkscape.org/) -->

<svg
   version="1.1"
   id="svg2"
   width="406.21487"
   height="406.21487"
   viewBox="0 0 406.21487 406.21487"
   xmlns="http://www.w3.org/2000/svg"
   xmlns:svg="http://www.w3.org/2000/svg">
  <defs
     id="defs6" />
  <g
     id="g8">
    <path
       style="fill:#64ffda;fill-opacity:1;stroke:none;stroke-width:0.793388"
       d="M 34.348654,0.87075237 C 29.656158,1.5095014 25.171292,2.2634904 20.861051,4.3301794 -7.0137541,17.695767 0.23295194,55.405443 0.23295194,80.665653 v 222.148757 53.95041 c 0,11.79054 -0.480492,23.94684 6.52219296,34.1157 10.8199291,15.71227 27.8896021,15.86777 45.0480541,15.86777 H 98.613116 284.266 342.97675 c 11.51841,0 23.54856,1.02426 34.90909,-1.15914 37.17342,-7.14446 28.56198,-55.49197 28.56198,-82.94003 V 99.706983 49.723513 c 0,-12.66201 0.14519,-25.337577 -8.30519,-35.701848 C 387.39063,0.83310237 372.07109,0.53342737 356.46435,0.53342737 H 305.68749 124.79493 c -29.363302,0 -61.370812,-3.62046197 -90.446276,0.337325 M 90.679232,45.192783 c 52.500888,-5.59045 61.436028,80.198557 8.727272,86.112467 -11.781024,1.32179 -23.768568,-0.82036 -33.322313,-8.21633 -23.539041,-18.22096 -21.659107,-55.147947 3.173553,-71.223977 6.568304,-4.25217 13.747835,-5.85513 21.421488,-6.67216 M 223.1751,175.07887 c 6.551,-7.57051 12.46175,-14.66658 21.42148,-19.58717 33.33342,-18.30903 86.95458,-11.15187 105.81422,24.3475 18.00436,33.89118 13.19405,75.61151 13.19405,112.66116 v 46.80991 c 0,5.52357 1.70023,14.34764 -2.04139,18.89217 -3.87491,4.70797 -9.9483,4.1161 -15.41316,4.1161 -12.42922,0 -24.86003,0.0603 -37.28926,-7.9e-4 -5.11259,-0.0246 -10.4878,-1.06949 -12.68707,-6.35822 -3.57818,-8.60509 -0.80053,-23.24311 -0.80053,-32.51702 0,-26.01362 2.5206,-53.52119 -0.56727,-79.33885 -2.16595,-18.11305 -8.90737,-38.02314 -30.37488,-39.59801 -20.19094,-1.48126 -33.02003,11.7723 -38.6031,30.07735 -3.53614,11.59617 -2.65309,23.7358 -2.65309,35.70248 v 52.36364 c 0,9.07795 4.055,31.21348 -4.1161,37.18373 -4.48741,3.27828 -10.49019,2.48569 -15.71862,2.48569 -11.62393,0 -23.28991,0.29276 -34.90909,-0.0119 -4.78809,-0.12536 -9.23504,-1.76767 -11.44621,-6.33838 -2.23498,-4.61752 -1.248,-10.88212 -1.248,-15.8646 v -34.1157 -104.72727 -30.14876 c 0,-4.81666 -0.78625,-10.5005 1.06631,-15.06248 2.30559,-5.67749 7.81885,-6.35028 13.21468,-6.35901 h 34.90909 c 4.67385,0 10.21408,-0.87907 14.13184,2.22466 6.30505,4.99597 4.1161,16.07564 4.1161,23.16377 M 67.670968,149.96337 c 12.490313,-2.56106 27.70671,-0.27293 40.462802,-0.27293 5.0769,0 10.93924,-0.6712 14.80146,3.35207 7.09924,7.39438 3.44648,26.81573 3.44648,36.31735 v 100.76033 53.15703 c 0,7.87358 -0.27134,16.48264 -9.52066,18.62162 -12.3245,2.84985 -27.814612,0.42049 -40.46281,0.4197 -5.208674,0 -11.024211,0.2642 -14.761547,-4.05342 -6.488172,-7.49514 -2.692998,-27.7321 -2.692998,-37.20278 V 218.71523 167.14499 c 0,-7.03101 0.0572,-15.40364 8.727273,-17.18162 z"
       id="path293" />
  </g>
</svg>
